<?xml version="1.0" standalone="no"?>
<!DOCTYPE svg PUBLIC "-//W3C//DTD SVG 1.1//EN" "http://www.w3.org/Graphics/SVG/1.1/DTD/svg11.dtd">

<svg viewBox="-30 -30 420 420" shape-rendering="auto" width="420" height="420" 
  xmlns="http://www.w3.org/2000/svg"
  xmlns:xlink="http://www.w3.org/1999/xlink">


<defs>
<mask id="qrCodeMask57946755">
<g transform="scale(1.3636363636363635)">
<rect x="0" y="0" width="264" height="264" fill="black"/>
<rect x="4" y="4" stroke-width="8" width="48" height="48" stroke="white" fill="none" rx="12.0"/>
<rect x="212" y="4" stroke-width="8" width="48" height="48" stroke="white" fill="none" rx="12.0"/>
<rect x="4" y="212" stroke-width="8" width="48" height="48" stroke="white" fill="none" rx="12.0"/>
<rect x="16" y="16" width="24" height="24" fill="white"/>
<rect x="224" y="16" width="24" height="24" fill="white"/>
<rect x="16" y="224" width="24" height="24" fill="white"/>
<path d="M75.2 0 A3.2 3.2, 0, 0, 1, 78.4 3.2 V 12.8 A3.2 3.2,0,0,1, 75.2 16 A3.2 3.2,0,0,1,72 12.8 V3.2 A3.2 3.2,0,0,1 75.2 0 Z" fill="white"/>
<circle cx="91.2" cy="4" r="3.2" fill="white"/>
<circle cx="139.2" cy="4" r="3.2" fill="white"/>
<circle cx="147.2" cy="4" r="3.2" fill="white"/>
<circle cx="155.2" cy="4" r="3.2" fill="white"/>
<path d="M179.2 0 A3.2 3.2, 0, 0, 1, 182.4 3.2 V 12.8 A3.2 3.2,0,0,1, 179.2 16 A3.2 3.2,0,0,1,176 12.8 V3.2 A3.2 3.2,0,0,1 179.2 0 Z" fill="white"/>
<path d="M195.2 0 A3.2 3.2, 0, 0, 1, 198.4 3.2 V 24.8 A3.2 3.2,0,0,1, 195.2 28.0 A3.2 3.2,0,0,1,192 24.8 V3.2 A3.2 3.2,0,0,1 195.2 0 Z" fill="white"/>
<path d="M123.2 8 A3.2 3.2, 0, 0, 1, 126.4 11.2 V 20.8 A3.2 3.2,0,0,1, 123.2 24 A3.2 3.2,0,0,1,120 20.8 V11.2 A3.2 3.2,0,0,1 123.2 8 Z" fill="white"/>
<circle cx="163.2" cy="12" r="3.2" fill="white"/>
<path d="M171.2 8 A3.2 3.2, 0, 0, 1, 174.4 11.2 V 32.8 A3.2 3.2,0,0,1, 171.2 36.0 A3.2 3.2,0,0,1,168 32.8 V11.2 A3.2 3.2,0,0,1 171.2 8 Z" fill="white"/>
<path d="M67.2 16 A3.2 3.2, 0, 0, 1, 70.4 19.2 V 28.8 A3.2 3.2,0,0,1, 67.2 32 A3.2 3.2,0,0,1,64 28.8 V19.2 A3.2 3.2,0,0,1 67.2 16 Z" fill="white"/>
<circle cx="83.2" cy="20" r="3.2" fill="white"/>
<circle cx="91.2" cy="20" r="3.2" fill="white"/>
<path d="M139.2 16 A3.2 3.2, 0, 0, 1, 142.4 19.2 V 36.8 A3.2 3.2,0,0,1, 139.2 40 A3.2 3.2,0,0,1,136 36.8 V19.2 A3.2 3.2,0,0,1 139.2 16 Z" fill="white"/>
<circle cx="147.2" cy="20" r="3.2" fill="white"/>
<path d="M155.2 16 A3.2 3.2, 0, 0, 1, 158.4 19.2 V 28.8 A3.2 3.2,0,0,1, 155.2 32 A3.2 3.2,0,0,1,152 28.8 V19.2 A3.2 3.2,0,0,1 155.2 16 Z" fill="white"/>
<path d="M187.2 16 A3.2 3.2, 0, 0, 1, 190.4 19.2 V 36.8 A3.2 3.2,0,0,1, 187.2 40 A3.2 3.2,0,0,1,184 36.8 V19.2 A3.2 3.2,0,0,1 187.2 16 Z" fill="white"/>
<circle cx="75.2" cy="28" r="3.2" fill="white"/>
<circle cx="107.2" cy="28" r="3.2" fill="white"/>
<path d="M115.2 24 A3.2 3.2, 0, 0, 1, 118.4 27.2 V 48.8 A3.2 3.2,0,0,1, 115.2 52.0 A3.2 3.2,0,0,1,112 48.8 V27.2 A3.2 3.2,0,0,1 115.2 24 Z" fill="white"/>
<path d="M115.2 56.0 A3.2 3.2, 0, 0, 1, 118.4 59.2 V 76.8 A3.2 3.2,0,0,1, 115.2 80 A3.2 3.2,0,0,1,112 76.8 V59.2 A3.2 3.2,0,0,1 115.2 56.0 Z" fill="white"/>
<circle cx="91.2" cy="36" r="3.2" fill="white"/>
<circle cx="123.2" cy="36" r="3.2" fill="white"/>
<path d="M131.2 32 A3.2 3.2, 0, 0, 1, 134.4 35.2 V 56.8 A3.2 3.2,0,0,1, 131.2 60.0 A3.2 3.2,0,0,1,128 56.8 V35.2 A3.2 3.2,0,0,1 131.2 32 Z" fill="white"/>
<circle cx="163.2" cy="36" r="3.2" fill="white"/>
<path d="M83.2 40 A3.2 3.2, 0, 0, 1, 86.4 43.2 V 52.8 A3.2 3.2,0,0,1, 83.2 56 A3.2 3.2,0,0,1,80 52.8 V43.2 A3.2 3.2,0,0,1 83.2 40 Z" fill="white"/>
<circle cx="107.2" cy="44" r="3.2" fill="white"/>
<path d="M195.2 40 A3.2 3.2, 0, 0, 1, 198.4 43.2 V 52.8 A3.2 3.2,0,0,1, 195.2 56 A3.2 3.2,0,0,1,192 52.8 V43.2 A3.2 3.2,0,0,1 195.2 40 Z" fill="white"/>
<circle cx="67.2" cy="52" r="3.2" fill="white"/>
<path d="M99.2 48 A3.2 3.2, 0, 0, 1, 102.4 51.2 V 60.8 A3.2 3.2,0,0,1, 99.2 64 A3.2 3.2,0,0,1,96 60.8 V51.2 A3.2 3.2,0,0,1 99.2 48 Z" fill="white"/>
<circle cx="147.2" cy="52" r="3.2" fill="white"/>
<circle cx="163.2" cy="52" r="3.2" fill="white"/>
<circle cx="179.2" cy="52" r="3.2" fill="white"/>
<path d="M75.2 56 A3.2 3.2, 0, 0, 1, 78.4 59.2 V 76.8 A3.2 3.2,0,0,1, 75.2 80 A3.2 3.2,0,0,1,72 76.8 V59.2 A3.2 3.2,0,0,1 75.2 56 Z" fill="white"/>
<path d="M123.2 56 A3.2 3.2, 0, 0, 1, 126.4 59.2 V 68.8 A3.2 3.2,0,0,1, 123.2 72 A3.2 3.2,0,0,1,120 68.8 V59.2 A3.2 3.2,0,0,1 123.2 56 Z" fill="white"/>
<path d="M139.2 56 A3.2 3.2, 0, 0, 1, 142.4 59.2 V 68.8 A3.2 3.2,0,0,1, 139.2 72 A3.2 3.2,0,0,1,136 68.8 V59.2 A3.2 3.2,0,0,1 139.2 56 Z" fill="white"/>
<path d="M187.2 56 A3.2 3.2, 0, 0, 1, 190.4 59.2 V 68.8 A3.2 3.2,0,0,1, 187.2 72 A3.2 3.2,0,0,1,184 68.8 V59.2 A3.2 3.2,0,0,1 187.2 56 Z" fill="white"/>
<circle cx="27.2" cy="68" r="3.2" fill="white"/>
<circle cx="35.2" cy="68" r="3.2" fill="white"/>
<circle cx="51.2" cy="68" r="3.2" fill="white"/>
<circle cx="59.2" cy="68" r="3.2" fill="white"/>
<path d="M83.2 64 A3.2 3.2, 0, 0, 1, 86.4 67.2 V 76.8 A3.2 3.2,0,0,1, 83.2 80 A3.2 3.2,0,0,1,80 76.8 V67.2 A3.2 3.2,0,0,1 83.2 64 Z" fill="white"/>
<path d="M155.2 64 A3.2 3.2, 0, 0, 1, 158.4 67.2 V 88.8 A3.2 3.2,0,0,1, 155.2 92.0 A3.2 3.2,0,0,1,152 88.8 V67.2 A3.2 3.2,0,0,1 155.2 64 Z" fill="white"/>
<circle cx="171.2" cy="68" r="3.2" fill="white"/>
<circle cx="235.2" cy="68" r="3.2" fill="white"/>
<path d="M243.2 64 A3.2 3.2, 0, 0, 1, 246.4 67.2 V 88.8 A3.2 3.2,0,0,1, 243.2 92.0 A3.2 3.2,0,0,1,240 88.8 V67.2 A3.2 3.2,0,0,1 243.2 64 Z" fill="white"/>
<circle cx="243.2" cy="100.0" r="3.2" fill="white"/>
<path d="M11.2 72 A3.2 3.2, 0, 0, 1, 14.4 75.2 V 84.8 A3.2 3.2,0,0,1, 11.2 88 A3.2 3.2,0,0,1,8 84.8 V75.2 A3.2 3.2,0,0,1 11.2 72 Z" fill="white"/>
<circle cx="43.2" cy="76" r="3.2" fill="white"/>
<circle cx="67.2" cy="76" r="3.2" fill="white"/>
<path d="M91.2 72 A3.2 3.2, 0, 0, 1, 94.4 75.2 V 84.8 A3.2 3.2,0,0,1, 91.2 88 A3.2 3.2,0,0,1,88 84.8 V75.2 A3.2 3.2,0,0,1 91.2 72 Z" fill="white"/>
<circle cx="131.2" cy="76" r="3.2" fill="white"/>
<path d="M147.2 72 A3.2 3.2, 0, 0, 1, 150.4 75.2 V 96.8 A3.2 3.2,0,0,1, 147.2 100.0 A3.2 3.2,0,0,1,144 96.8 V75.2 A3.2 3.2,0,0,1 147.2 72 Z" fill="white"/>
<path d="M147.2 104.0 A3.2 3.2, 0, 0, 1, 150.4 107.2 V 116.8 A3.2 3.2,0,0,1, 147.2 120 A3.2 3.2,0,0,1,144 116.8 V107.2 A3.2 3.2,0,0,1 147.2 104.0 Z" fill="white"/>
<path d="M203.2 72 A3.2 3.2, 0, 0, 1, 206.4 75.2 V 84.8 A3.2 3.2,0,0,1, 203.2 88 A3.2 3.2,0,0,1,200 84.8 V75.2 A3.2 3.2,0,0,1 203.2 72 Z" fill="white"/>
<path d="M219.2 72 A3.2 3.2, 0, 0, 1, 222.4 75.2 V 96.8 A3.2 3.2,0,0,1, 219.2 100.0 A3.2 3.2,0,0,1,216 96.8 V75.2 A3.2 3.2,0,0,1 219.2 72 Z" fill="white"/>
<circle cx="227.2" cy="76" r="3.2" fill="white"/>
<circle cx="251.2" cy="76" r="3.2" fill="white"/>
<circle cx="51.2" cy="84" r="3.2" fill="white"/>
<circle cx="99.2" cy="84" r="3.2" fill="white"/>
<path d="M123.2 80 A3.2 3.2, 0, 0, 1, 126.4 83.2 V 92.8 A3.2 3.2,0,0,1, 123.2 96 A3.2 3.2,0,0,1,120 92.8 V83.2 A3.2 3.2,0,0,1 123.2 80 Z" fill="white"/>
<circle cx="163.2" cy="84" r="3.2" fill="white"/>
<circle cx="171.2" cy="84" r="3.2" fill="white"/>
<circle cx="187.2" cy="84" r="3.2" fill="white"/>
<path d="M259.2 80 A3.2 3.2, 0, 0, 1, 262.4 83.2 V 92.8 A3.2 3.2,0,0,1, 259.2 96 A3.2 3.2,0,0,1,256 92.8 V83.2 A3.2 3.2,0,0,1 259.2 80 Z" fill="white"/>
<circle cx="19.2" cy="92" r="3.2" fill="white"/>
<path d="M35.2 88 A3.2 3.2, 0, 0, 1, 38.4 91.2 V 108.8 A3.2 3.2,0,0,1, 35.2 112 A3.2 3.2,0,0,1,32 108.8 V91.2 A3.2 3.2,0,0,1 35.2 88 Z" fill="white"/>
<path d="M43.2 88 A3.2 3.2, 0, 0, 1, 46.4 91.2 V 108.8 A3.2 3.2,0,0,1, 43.2 112 A3.2 3.2,0,0,1,40 108.8 V91.2 A3.2 3.2,0,0,1 43.2 88 Z" fill="white"/>
<circle cx="75.2" cy="92" r="3.2" fill="white"/>
<path d="M83.2 88 A3.2 3.2, 0, 0, 1, 86.4 91.2 V 100.8 A3.2 3.2,0,0,1, 83.2 104 A3.2 3.2,0,0,1,80 100.8 V91.2 A3.2 3.2,0,0,1 83.2 88 Z" fill="white"/>
<circle cx="131.2" cy="92" r="3.2" fill="white"/>
<path d="M195.2 88 A3.2 3.2, 0, 0, 1, 198.4 91.2 V 108.8 A3.2 3.2,0,0,1, 195.2 112 A3.2 3.2,0,0,1,192 108.8 V91.2 A3.2 3.2,0,0,1 195.2 88 Z" fill="white"/>
<path d="M211.2 88 A3.2 3.2, 0, 0, 1, 214.4 91.2 V 100.8 A3.2 3.2,0,0,1, 211.2 104 A3.2 3.2,0,0,1,208 100.8 V91.2 A3.2 3.2,0,0,1 211.2 88 Z" fill="white"/>
<path d="M227.2 88 A3.2 3.2, 0, 0, 1, 230.4 91.2 V 100.8 A3.2 3.2,0,0,1, 227.2 104 A3.2 3.2,0,0,1,224 100.8 V91.2 A3.2 3.2,0,0,1 227.2 88 Z" fill="white"/>
<circle cx="251.2" cy="92" r="3.2" fill="white"/>
<circle cx="51.2" cy="100" r="3.2" fill="white"/>
<circle cx="59.2" cy="100" r="3.2" fill="white"/>
<path d="M115.2 96 A3.2 3.2, 0, 0, 1, 118.4 99.2 V 108.8 A3.2 3.2,0,0,1, 115.2 112 A3.2 3.2,0,0,1,112 108.8 V99.2 A3.2 3.2,0,0,1 115.2 96 Z" fill="white"/>
<path d="M139.2 96 A3.2 3.2, 0, 0, 1, 142.4 99.2 V 108.8 A3.2 3.2,0,0,1, 139.2 112 A3.2 3.2,0,0,1,136 108.8 V99.2 A3.2 3.2,0,0,1 139.2 96 Z" fill="white"/>
<path d="M163.2 96 A3.2 3.2, 0, 0, 1, 166.4 99.2 V 116.8 A3.2 3.2,0,0,1, 163.2 120 A3.2 3.2,0,0,1,160 116.8 V99.2 A3.2 3.2,0,0,1 163.2 96 Z" fill="white"/>
<path d="M171.2 96 A3.2 3.2, 0, 0, 1, 174.4 99.2 V 108.8 A3.2 3.2,0,0,1, 171.2 112 A3.2 3.2,0,0,1,168 108.8 V99.2 A3.2 3.2,0,0,1 171.2 96 Z" fill="white"/>
<path d="M179.2 96 A3.2 3.2, 0, 0, 1, 182.4 99.2 V 108.8 A3.2 3.2,0,0,1, 179.2 112 A3.2 3.2,0,0,1,176 108.8 V99.2 A3.2 3.2,0,0,1 179.2 96 Z" fill="white"/>
<circle cx="235.2" cy="100" r="3.2" fill="white"/>
<path d="M11.2 104 A3.2 3.2, 0, 0, 1, 14.4 107.2 V 116.8 A3.2 3.2,0,0,1, 11.2 120 A3.2 3.2,0,0,1,8 116.8 V107.2 A3.2 3.2,0,0,1 11.2 104 Z" fill="white"/>
<circle cx="67.2" cy="108" r="3.2" fill="white"/>
<circle cx="123.2" cy="108" r="3.2" fill="white"/>
<circle cx="187.2" cy="108" r="3.2" fill="white"/>
<circle cx="251.2" cy="108" r="3.2" fill="white"/>
<circle cx="3.2" cy="116" r="3.2" fill="white"/>
<circle cx="19.2" cy="116" r="3.2" fill="white"/>
<circle cx="51.2" cy="116" r="3.2" fill="white"/>
<circle cx="59.2" cy="116" r="3.2" fill="white"/>
<circle cx="91.2" cy="116" r="3.2" fill="white"/>
<path d="M99.2 112 A3.2 3.2, 0, 0, 1, 102.4 115.2 V 124.8 A3.2 3.2,0,0,1, 99.2 128 A3.2 3.2,0,0,1,96 124.8 V115.2 A3.2 3.2,0,0,1 99.2 112 Z" fill="white"/>
<path d="M131.2 112 A3.2 3.2, 0, 0, 1, 134.4 115.2 V 132.8 A3.2 3.2,0,0,1, 131.2 136 A3.2 3.2,0,0,1,128 132.8 V115.2 A3.2 3.2,0,0,1 131.2 112 Z" fill="white"/>
<circle cx="211.2" cy="116" r="3.2" fill="white"/>
<circle cx="35.2" cy="124" r="3.2" fill="white"/>
<path d="M67.2 120 A3.2 3.2, 0, 0, 1, 70.4 123.2 V 132.8 A3.2 3.2,0,0,1, 67.2 136 A3.2 3.2,0,0,1,64 132.8 V123.2 A3.2 3.2,0,0,1 67.2 120 Z" fill="white"/>
<path d="M107.2 120 A3.2 3.2, 0, 0, 1, 110.4 123.2 V 132.8 A3.2 3.2,0,0,1, 107.2 136 A3.2 3.2,0,0,1,104 132.8 V123.2 A3.2 3.2,0,0,1 107.2 120 Z" fill="white"/>
<circle cx="115.2" cy="124" r="3.2" fill="white"/>
<path d="M123.2 120 A3.2 3.2, 0, 0, 1, 126.4 123.2 V 132.8 A3.2 3.2,0,0,1, 123.2 136 A3.2 3.2,0,0,1,120 132.8 V123.2 A3.2 3.2,0,0,1 123.2 120 Z" fill="white"/>
<circle cx="139.2" cy="124" r="3.2" fill="white"/>
<circle cx="187.2" cy="124" r="3.2" fill="white"/>
<path d="M203.2 120 A3.2 3.2, 0, 0, 1, 206.4 123.2 V 132.8 A3.2 3.2,0,0,1, 203.2 136 A3.2 3.2,0,0,1,200 132.8 V123.2 A3.2 3.2,0,0,1 203.2 120 Z" fill="white"/>
<circle cx="227.2" cy="124" r="3.2" fill="white"/>
<path d="M235.2 120 A3.2 3.2, 0, 0, 1, 238.4 123.2 V 144.8 A3.2 3.2,0,0,1, 235.2 148.0 A3.2 3.2,0,0,1,232 144.8 V123.2 A3.2 3.2,0,0,1 235.2 120 Z" fill="white"/>
<path d="M235.2 152.0 A3.2 3.2, 0, 0, 1, 238.4 155.2 V 164.8 A3.2 3.2,0,0,1, 235.2 168 A3.2 3.2,0,0,1,232 164.8 V155.2 A3.2 3.2,0,0,1 235.2 152.0 Z" fill="white"/>
<path d="M243.2 120 A3.2 3.2, 0, 0, 1, 246.4 123.2 V 132.8 A3.2 3.2,0,0,1, 243.2 136 A3.2 3.2,0,0,1,240 132.8 V123.2 A3.2 3.2,0,0,1 243.2 120 Z" fill="white"/>
<path d="M251.2 120 A3.2 3.2, 0, 0, 1, 254.4 123.2 V 132.8 A3.2 3.2,0,0,1, 251.2 136 A3.2 3.2,0,0,1,248 132.8 V123.2 A3.2 3.2,0,0,1 251.2 120 Z" fill="white"/>
<circle cx="259.2" cy="124" r="3.2" fill="white"/>
<circle cx="3.2" cy="132" r="3.2" fill="white"/>
<path d="M11.2 128 A3.2 3.2, 0, 0, 1, 14.4 131.2 V 140.8 A3.2 3.2,0,0,1, 11.2 144 A3.2 3.2,0,0,1,8 140.8 V131.2 A3.2 3.2,0,0,1 11.2 128 Z" fill="white"/>
<path d="M19.2 128 A3.2 3.2, 0, 0, 1, 22.4 131.2 V 140.8 A3.2 3.2,0,0,1, 19.2 144 A3.2 3.2,0,0,1,16 140.8 V131.2 A3.2 3.2,0,0,1 19.2 128 Z" fill="white"/>
<circle cx="27.2" cy="132" r="3.2" fill="white"/>
<circle cx="51.2" cy="132" r="3.2" fill="white"/>
<circle cx="75.2" cy="132" r="3.2" fill="white"/>
<circle cx="83.2" cy="132" r="3.2" fill="white"/>
<path d="M147.2 128 A3.2 3.2, 0, 0, 1, 150.4 131.2 V 148.8 A3.2 3.2,0,0,1, 147.2 152 A3.2 3.2,0,0,1,144 148.8 V131.2 A3.2 3.2,0,0,1 147.2 128 Z" fill="white"/>
<circle cx="155.2" cy="132" r="3.2" fill="white"/>
<circle cx="211.2" cy="132" r="3.2" fill="white"/>
<path d="M219.2 128 A3.2 3.2, 0, 0, 1, 222.4 131.2 V 148.8 A3.2 3.2,0,0,1, 219.2 152 A3.2 3.2,0,0,1,216 148.8 V131.2 A3.2 3.2,0,0,1 219.2 128 Z" fill="white"/>
<circle cx="59.2" cy="140" r="3.2" fill="white"/>
<path d="M91.2 136 A3.2 3.2, 0, 0, 1, 94.4 139.2 V 156.8 A3.2 3.2,0,0,1, 91.2 160 A3.2 3.2,0,0,1,88 156.8 V139.2 A3.2 3.2,0,0,1 91.2 136 Z" fill="white"/>
<circle cx="99.2" cy="140" r="3.2" fill="white"/>
<circle cx="115.2" cy="140" r="3.2" fill="white"/>
<path d="M163.2 136 A3.2 3.2, 0, 0, 1, 166.4 139.2 V 148.8 A3.2 3.2,0,0,1, 163.2 152 A3.2 3.2,0,0,1,160 148.8 V139.2 A3.2 3.2,0,0,1 163.2 136 Z" fill="white"/>
<path d="M171.2 136 A3.2 3.2, 0, 0, 1, 174.4 139.2 V 148.8 A3.2 3.2,0,0,1, 171.2 152 A3.2 3.2,0,0,1,168 148.8 V139.2 A3.2 3.2,0,0,1 171.2 136 Z" fill="white"/>
<path d="M179.2 136 A3.2 3.2, 0, 0, 1, 182.4 139.2 V 160.8 A3.2 3.2,0,0,1, 179.2 164.0 A3.2 3.2,0,0,1,176 160.8 V139.2 A3.2 3.2,0,0,1 179.2 136 Z" fill="white"/>
<circle cx="179.2" cy="172.0" r="3.2" fill="white"/>
<circle cx="195.2" cy="140" r="3.2" fill="white"/>
<path d="M227.2 136 A3.2 3.2, 0, 0, 1, 230.4 139.2 V 148.8 A3.2 3.2,0,0,1, 227.2 152 A3.2 3.2,0,0,1,224 148.8 V139.2 A3.2 3.2,0,0,1 227.2 136 Z" fill="white"/>
<path d="M27.2 144 A3.2 3.2, 0, 0, 1, 30.4 147.2 V 168.8 A3.2 3.2,0,0,1, 27.2 172.0 A3.2 3.2,0,0,1,24 168.8 V147.2 A3.2 3.2,0,0,1 27.2 144 Z" fill="white"/>
<circle cx="35.2" cy="148" r="3.2" fill="white"/>
<path d="M43.2 144 A3.2 3.2, 0, 0, 1, 46.4 147.2 V 156.8 A3.2 3.2,0,0,1, 43.2 160 A3.2 3.2,0,0,1,40 156.8 V147.2 A3.2 3.2,0,0,1 43.2 144 Z" fill="white"/>
<circle cx="51.2" cy="148" r="3.2" fill="white"/>
<circle cx="67.2" cy="148" r="3.2" fill="white"/>
<circle cx="75.2" cy="148" r="3.2" fill="white"/>
<path d="M123.2 144 A3.2 3.2, 0, 0, 1, 126.4 147.2 V 168.8 A3.2 3.2,0,0,1, 123.2 172.0 A3.2 3.2,0,0,1,120 168.8 V147.2 A3.2 3.2,0,0,1 123.2 144 Z" fill="white"/>
<path d="M123.2 176.0 A3.2 3.2, 0, 0, 1, 126.4 179.2 V 188.8 A3.2 3.2,0,0,1, 123.2 192 A3.2 3.2,0,0,1,120 188.8 V179.2 A3.2 3.2,0,0,1 123.2 176.0 Z" fill="white"/>
<path d="M187.2 144 A3.2 3.2, 0, 0, 1, 190.4 147.2 V 156.8 A3.2 3.2,0,0,1, 187.2 160 A3.2 3.2,0,0,1,184 156.8 V147.2 A3.2 3.2,0,0,1 187.2 144 Z" fill="white"/>
<path d="M243.2 144 A3.2 3.2, 0, 0, 1, 246.4 147.2 V 156.8 A3.2 3.2,0,0,1, 243.2 160 A3.2 3.2,0,0,1,240 156.8 V147.2 A3.2 3.2,0,0,1 243.2 144 Z" fill="white"/>
<circle cx="259.2" cy="148" r="3.2" fill="white"/>
<circle cx="11.2" cy="156" r="3.2" fill="white"/>
<path d="M19.2 152 A3.2 3.2, 0, 0, 1, 22.4 155.2 V 172.8 A3.2 3.2,0,0,1, 19.2 176 A3.2 3.2,0,0,1,16 172.8 V155.2 A3.2 3.2,0,0,1 19.2 152 Z" fill="white"/>
<path d="M99.2 152 A3.2 3.2, 0, 0, 1, 102.4 155.2 V 164.8 A3.2 3.2,0,0,1, 99.2 168 A3.2 3.2,0,0,1,96 164.8 V155.2 A3.2 3.2,0,0,1 99.2 152 Z" fill="white"/>
<path d="M155.2 152 A3.2 3.2, 0, 0, 1, 158.4 155.2 V 176.8 A3.2 3.2,0,0,1, 155.2 180.0 A3.2 3.2,0,0,1,152 176.8 V155.2 A3.2 3.2,0,0,1 155.2 152 Z" fill="white"/>
<path d="M155.2 184.0 A3.2 3.2, 0, 0, 1, 158.4 187.2 V 204.8 A3.2 3.2,0,0,1, 155.2 208 A3.2 3.2,0,0,1,152 204.8 V187.2 A3.2 3.2,0,0,1 155.2 184.0 Z" fill="white"/>
<circle cx="195.2" cy="156" r="3.2" fill="white"/>
<circle cx="203.2" cy="156" r="3.2" fill="white"/>
<path d="M251.2 152 A3.2 3.2, 0, 0, 1, 254.4 155.2 V 176.8 A3.2 3.2,0,0,1, 251.2 180.0 A3.2 3.2,0,0,1,248 176.8 V155.2 A3.2 3.2,0,0,1 251.2 152 Z" fill="white"/>
<circle cx="251.2" cy="188.0" r="3.2" fill="white"/>
<circle cx="51.2" cy="164" r="3.2" fill="white"/>
<path d="M75.2 160 A3.2 3.2, 0, 0, 1, 78.4 163.2 V 172.8 A3.2 3.2,0,0,1, 75.2 176 A3.2 3.2,0,0,1,72 172.8 V163.2 A3.2 3.2,0,0,1 75.2 160 Z" fill="white"/>
<path d="M83.2 160 A3.2 3.2, 0, 0, 1, 86.4 163.2 V 172.8 A3.2 3.2,0,0,1, 83.2 176 A3.2 3.2,0,0,1,80 172.8 V163.2 A3.2 3.2,0,0,1 83.2 160 Z" fill="white"/>
<circle cx="115.2" cy="164" r="3.2" fill="white"/>
<circle cx="131.2" cy="164" r="3.2" fill="white"/>
<circle cx="163.2" cy="164" r="3.2" fill="white"/>
<path d="M211.2 160 A3.2 3.2, 0, 0, 1, 214.4 163.2 V 180.8 A3.2 3.2,0,0,1, 211.2 184 A3.2 3.2,0,0,1,208 180.8 V163.2 A3.2 3.2,0,0,1 211.2 160 Z" fill="white"/>
<circle cx="219.2" cy="164" r="3.2" fill="white"/>
<path d="M3.2 168 A3.2 3.2, 0, 0, 1, 6.4 171.2 V 192.8 A3.2 3.2,0,0,1, 3.2 196.0 A3.2 3.2,0,0,1,0 192.8 V171.2 A3.2 3.2,0,0,1 3.2 168 Z" fill="white"/>
<circle cx="11.2" cy="172" r="3.2" fill="white"/>
<path d="M35.2 168 A3.2 3.2, 0, 0, 1, 38.4 171.2 V 180.8 A3.2 3.2,0,0,1, 35.2 184 A3.2 3.2,0,0,1,32 180.8 V171.2 A3.2 3.2,0,0,1 35.2 168 Z" fill="white"/>
<path d="M43.2 168 A3.2 3.2, 0, 0, 1, 46.4 171.2 V 180.8 A3.2 3.2,0,0,1, 43.2 184 A3.2 3.2,0,0,1,40 180.8 V171.2 A3.2 3.2,0,0,1 43.2 168 Z" fill="white"/>
<circle cx="59.2" cy="172" r="3.2" fill="white"/>
<circle cx="67.2" cy="172" r="3.2" fill="white"/>
<circle cx="139.2" cy="172" r="3.2" fill="white"/>
<circle cx="171.2" cy="172" r="3.2" fill="white"/>
<circle cx="195.2" cy="172" r="3.2" fill="white"/>
<path d="M227.2 168 A3.2 3.2, 0, 0, 1, 230.4 171.2 V 180.8 A3.2 3.2,0,0,1, 227.2 184 A3.2 3.2,0,0,1,224 180.8 V171.2 A3.2 3.2,0,0,1 227.2 168 Z" fill="white"/>
<circle cx="243.2" cy="172" r="3.2" fill="white"/>
<path d="M259.2 168 A3.2 3.2, 0, 0, 1, 262.4 171.2 V 188.8 A3.2 3.2,0,0,1, 259.2 192 A3.2 3.2,0,0,1,256 188.8 V171.2 A3.2 3.2,0,0,1 259.2 168 Z" fill="white"/>
<circle cx="51.2" cy="180" r="3.2" fill="white"/>
<circle cx="91.2" cy="180" r="3.2" fill="white"/>
<circle cx="99.2" cy="180" r="3.2" fill="white"/>
<circle cx="147.2" cy="180" r="3.2" fill="white"/>
<circle cx="163.2" cy="180" r="3.2" fill="white"/>
<path d="M187.2 176 A3.2 3.2, 0, 0, 1, 190.4 179.2 V 196.8 A3.2 3.2,0,0,1, 187.2 200 A3.2 3.2,0,0,1,184 196.8 V179.2 A3.2 3.2,0,0,1 187.2 176 Z" fill="white"/>
<circle cx="235.2" cy="180" r="3.2" fill="white"/>
<circle cx="59.2" cy="188" r="3.2" fill="white"/>
<circle cx="67.2" cy="188" r="3.2" fill="white"/>
<path d="M83.2 184 A3.2 3.2, 0, 0, 1, 86.4 187.2 V 208.8 A3.2 3.2,0,0,1, 83.2 212.0 A3.2 3.2,0,0,1,80 208.8 V187.2 A3.2 3.2,0,0,1 83.2 184 Z" fill="white"/>
<circle cx="83.2" cy="220.0" r="3.2" fill="white"/>
<path d="M179.2 184 A3.2 3.2, 0, 0, 1, 182.4 187.2 V 204.8 A3.2 3.2,0,0,1, 179.2 208 A3.2 3.2,0,0,1,176 204.8 V187.2 A3.2 3.2,0,0,1 179.2 184 Z" fill="white"/>
<path d="M195.2 184 A3.2 3.2, 0, 0, 1, 198.4 187.2 V 208.8 A3.2 3.2,0,0,1, 195.2 212.0 A3.2 3.2,0,0,1,192 208.8 V187.2 A3.2 3.2,0,0,1 195.2 184 Z" fill="white"/>
<path d="M195.2 216.0 A3.2 3.2, 0, 0, 1, 198.4 219.2 V 236.8 A3.2 3.2,0,0,1, 195.2 240 A3.2 3.2,0,0,1,192 236.8 V219.2 A3.2 3.2,0,0,1 195.2 216.0 Z" fill="white"/>
<path d="M219.2 184 A3.2 3.2, 0, 0, 1, 222.4 187.2 V 196.8 A3.2 3.2,0,0,1, 219.2 200 A3.2 3.2,0,0,1,216 196.8 V187.2 A3.2 3.2,0,0,1 219.2 184 Z" fill="white"/>
<circle cx="243.2" cy="188" r="3.2" fill="white"/>
<circle cx="11.2" cy="196" r="3.2" fill="white"/>
<circle cx="27.2" cy="196" r="3.2" fill="white"/>
<circle cx="35.2" cy="196" r="3.2" fill="white"/>
<circle cx="51.2" cy="196" r="3.2" fill="white"/>
<circle cx="203.2" cy="196" r="3.2" fill="white"/>
<circle cx="211.2" cy="196" r="3.2" fill="white"/>
<path d="M227.2 192 A3.2 3.2, 0, 0, 1, 230.4 195.2 V 216.8 A3.2 3.2,0,0,1, 227.2 220.0 A3.2 3.2,0,0,1,224 216.8 V195.2 A3.2 3.2,0,0,1 227.2 192 Z" fill="white"/>
<circle cx="227.2" cy="228.0" r="3.2" fill="white"/>
<circle cx="235.2" cy="196" r="3.2" fill="white"/>
<path d="M67.2 200 A3.2 3.2, 0, 0, 1, 70.4 203.2 V 212.8 A3.2 3.2,0,0,1, 67.2 216 A3.2 3.2,0,0,1,64 212.8 V203.2 A3.2 3.2,0,0,1 67.2 200 Z" fill="white"/>
<circle cx="75.2" cy="204" r="3.2" fill="white"/>
<path d="M99.2 200 A3.2 3.2, 0, 0, 1, 102.4 203.2 V 224.8 A3.2 3.2,0,0,1, 99.2 228.0 A3.2 3.2,0,0,1,96 224.8 V203.2 A3.2 3.2,0,0,1 99.2 200 Z" fill="white"/>
<circle cx="99.2" cy="236.0" r="3.2" fill="white"/>
<path d="M115.2 200 A3.2 3.2, 0, 0, 1, 118.4 203.2 V 224.8 A3.2 3.2,0,0,1, 115.2 228.0 A3.2 3.2,0,0,1,112 224.8 V203.2 A3.2 3.2,0,0,1 115.2 200 Z" fill="white"/>
<path d="M115.2 232.0 A3.2 3.2, 0, 0, 1, 118.4 235.2 V 252.8 A3.2 3.2,0,0,1, 115.2 256 A3.2 3.2,0,0,1,112 252.8 V235.2 A3.2 3.2,0,0,1 115.2 232.0 Z" fill="white"/>
<circle cx="123.2" cy="204" r="3.2" fill="white"/>
<path d="M139.2 200 A3.2 3.2, 0, 0, 1, 142.4 203.2 V 220.8 A3.2 3.2,0,0,1, 139.2 224 A3.2 3.2,0,0,1,136 220.8 V203.2 A3.2 3.2,0,0,1 139.2 200 Z" fill="white"/>
<circle cx="171.2" cy="204" r="3.2" fill="white"/>
<circle cx="243.2" cy="204" r="3.2" fill="white"/>
<circle cx="251.2" cy="204" r="3.2" fill="white"/>
<circle cx="107.2" cy="212" r="3.2" fill="white"/>
<circle cx="163.2" cy="212" r="3.2" fill="white"/>
<circle cx="211.2" cy="212" r="3.2" fill="white"/>
<path d="M91.2 216 A3.2 3.2, 0, 0, 1, 94.4 219.2 V 228.8 A3.2 3.2,0,0,1, 91.2 232 A3.2 3.2,0,0,1,88 228.8 V219.2 A3.2 3.2,0,0,1 91.2 216 Z" fill="white"/>
<circle cx="123.2" cy="220" r="3.2" fill="white"/>
<path d="M131.2 216 A3.2 3.2, 0, 0, 1, 134.4 219.2 V 240.8 A3.2 3.2,0,0,1, 131.2 244.0 A3.2 3.2,0,0,1,128 240.8 V219.2 A3.2 3.2,0,0,1 131.2 216 Z" fill="white"/>
<path d="M147.2 216 A3.2 3.2, 0, 0, 1, 150.4 219.2 V 240.8 A3.2 3.2,0,0,1, 147.2 244.0 A3.2 3.2,0,0,1,144 240.8 V219.2 A3.2 3.2,0,0,1 147.2 216 Z" fill="white"/>
<path d="M171.2 216 A3.2 3.2, 0, 0, 1, 174.4 219.2 V 236.8 A3.2 3.2,0,0,1, 171.2 240 A3.2 3.2,0,0,1,168 236.8 V219.2 A3.2 3.2,0,0,1 171.2 216 Z" fill="white"/>
<path d="M179.2 216 A3.2 3.2, 0, 0, 1, 182.4 219.2 V 240.8 A3.2 3.2,0,0,1, 179.2 244.0 A3.2 3.2,0,0,1,176 240.8 V219.2 A3.2 3.2,0,0,1 179.2 216 Z" fill="white"/>
<path d="M187.2 216 A3.2 3.2, 0, 0, 1, 190.4 219.2 V 240.8 A3.2 3.2,0,0,1, 187.2 244.0 A3.2 3.2,0,0,1,184 240.8 V219.2 A3.2 3.2,0,0,1 187.2 216 Z" fill="white"/>
<circle cx="243.2" cy="220" r="3.2" fill="white"/>
<path d="M251.2 216 A3.2 3.2, 0, 0, 1, 254.4 219.2 V 240.8 A3.2 3.2,0,0,1, 251.2 244.0 A3.2 3.2,0,0,1,248 240.8 V219.2 A3.2 3.2,0,0,1 251.2 216 Z" fill="white"/>
<circle cx="251.2" cy="252.0" r="3.2" fill="white"/>
<path d="M67.2 224 A3.2 3.2, 0, 0, 1, 70.4 227.2 V 236.8 A3.2 3.2,0,0,1, 67.2 240 A3.2 3.2,0,0,1,64 236.8 V227.2 A3.2 3.2,0,0,1 67.2 224 Z" fill="white"/>
<path d="M203.2 224 A3.2 3.2, 0, 0, 1, 206.4 227.2 V 236.8 A3.2 3.2,0,0,1, 203.2 240 A3.2 3.2,0,0,1,200 236.8 V227.2 A3.2 3.2,0,0,1 203.2 224 Z" fill="white"/>
<circle cx="211.2" cy="228" r="3.2" fill="white"/>
<path d="M219.2 224 A3.2 3.2, 0, 0, 1, 222.4 227.2 V 236.8 A3.2 3.2,0,0,1, 219.2 240 A3.2 3.2,0,0,1,216 236.8 V227.2 A3.2 3.2,0,0,1 219.2 224 Z" fill="white"/>
<path d="M75.2 232 A3.2 3.2, 0, 0, 1, 78.4 235.2 V 244.8 A3.2 3.2,0,0,1, 75.2 248 A3.2 3.2,0,0,1,72 244.8 V235.2 A3.2 3.2,0,0,1 75.2 232 Z" fill="white"/>
<circle cx="107.2" cy="236" r="3.2" fill="white"/>
<path d="M123.2 232 A3.2 3.2, 0, 0, 1, 126.4 235.2 V 244.8 A3.2 3.2,0,0,1, 123.2 248 A3.2 3.2,0,0,1,120 244.8 V235.2 A3.2 3.2,0,0,1 123.2 232 Z" fill="white"/>
<circle cx="155.2" cy="236" r="3.2" fill="white"/>
<circle cx="243.2" cy="236" r="3.2" fill="white"/>
<circle cx="91.2" cy="244" r="3.2" fill="white"/>
<circle cx="139.2" cy="244" r="3.2" fill="white"/>
<circle cx="163.2" cy="244" r="3.2" fill="white"/>
<circle cx="227.2" cy="244" r="3.2" fill="white"/>
<path d="M235.2 240 A3.2 3.2, 0, 0, 1, 238.4 243.2 V 252.8 A3.2 3.2,0,0,1, 235.2 256 A3.2 3.2,0,0,1,232 252.8 V243.2 A3.2 3.2,0,0,1 235.2 240 Z" fill="white"/>
<path d="M259.2 240 A3.2 3.2, 0, 0, 1, 262.4 243.2 V 252.8 A3.2 3.2,0,0,1, 259.2 256 A3.2 3.2,0,0,1,256 252.8 V243.2 A3.2 3.2,0,0,1 259.2 240 Z" fill="white"/>
<path d="M99.2 248 A3.2 3.2, 0, 0, 1, 102.4 251.2 V 260.8 A3.2 3.2,0,0,1, 99.2 264 A3.2 3.2,0,0,1,96 260.8 V251.2 A3.2 3.2,0,0,1 99.2 248 Z" fill="white"/>
<path d="M107.2 248 A3.2 3.2, 0, 0, 1, 110.4 251.2 V 260.8 A3.2 3.2,0,0,1, 107.2 264 A3.2 3.2,0,0,1,104 260.8 V251.2 A3.2 3.2,0,0,1 107.2 248 Z" fill="white"/>
<path d="M155.2 248 A3.2 3.2, 0, 0, 1, 158.4 251.2 V 260.8 A3.2 3.2,0,0,1, 155.2 264 A3.2 3.2,0,0,1,152 260.8 V251.2 A3.2 3.2,0,0,1 155.2 248 Z" fill="white"/>
<path d="M171.2 248 A3.2 3.2, 0, 0, 1, 174.4 251.2 V 260.8 A3.2 3.2,0,0,1, 171.2 264 A3.2 3.2,0,0,1,168 260.8 V251.2 A3.2 3.2,0,0,1 171.2 248 Z" fill="white"/>
<circle cx="211.2" cy="252" r="3.2" fill="white"/>
<path d="M243.2 248 A3.2 3.2, 0, 0, 1, 246.4 251.2 V 260.8 A3.2 3.2,0,0,1, 243.2 264 A3.2 3.2,0,0,1,240 260.8 V251.2 A3.2 3.2,0,0,1 243.2 248 Z" fill="white"/>
<circle cx="75.2" cy="260" r="3.2" fill="white"/>
<circle cx="83.2" cy="260" r="3.2" fill="white"/>
<circle cx="147.2" cy="260" r="3.2" fill="white"/>
<circle cx="163.2" cy="260" r="3.2" fill="white"/>
<circle cx="187.2" cy="260" r="3.2" fill="white"/>
<circle cx="195.2" cy="260" r="3.2" fill="white"/>
<circle cx="203.2" cy="260" r="3.2" fill="white"/>
<circle cx="227.2" cy="260" r="3.2" fill="white"/>
</g>
</mask>
<filter id="shadow666351696" x="-20" y="-20" width="75" height="75">
<feDropShadow dx="0" dy="0" stdDeviation="5" flood-color="#999999"/>
</filter>
<radialGradient cx="50%" cy="50%" fx="50%" fy="50%" r="100%" id="maskImage8Gradient_rand_uuid">
  <stop stop-color="#5E91D2" offset="0%"></stop>
  <stop stop-color="#072D5E" offset="100%"></stop>
</radialGradient>
</defs>
<path d="M5 0 H50 A5 5,0,0,1, 50 10 H10 V50 A5 5,0,0,1, 0 50 V5 A5 5,0,0,1, 5 0 Z" fill="#e2ff3b" transform="translate(-30, -30)"/>
<path d="M370 0 H415 A5 5,0,0,1, 420 5 V50 A5 5,0,0,1, 410 50 V10 H370 A5 5,0,0,1, 370 0 Z" fill="#e2ff3b" transform="translate(-30, -30)"/>
<path d="M0 370 A5 5,0,0,1, 10 370 V410 H50 A5 5,0,0,1 50 420 H5 A5 5,0,0,1 0 415 Z" fill="#e2ff3b" transform="translate(-30, -30)"/>
<path d="M410 370 A5 5,0,0,1, 420 370 V415 A5 5,0,0,1, 415 420 H370 A5 5,0,0,1, 370 410 H410 V370 A5 5,0,0,1 410 370 Z" fill="#e2ff3b" transform="translate(-30, -30)"/>
<rect x="0" y="0" width="360" height="360" fill="#e2ff3b" mask="url(#qrCodeMask57946755)"/>

</svg>