<?xml version="1.0" standalone="no"?>
<!DOCTYPE svg PUBLIC "-//W3C//DTD SVG 1.1//EN" "http://www.w3.org/Graphics/SVG/1.1/DTD/svg11.dtd">

<svg viewBox="0 0 360 360" shape-rendering="auto" width="360" height="360" 
  xmlns="http://www.w3.org/2000/svg"
  xmlns:xlink="http://www.w3.org/1999/xlink">


<defs>
<mask id="qrCodeMask1346895962">
<g transform="scale(1.3636363636363635)">
<rect x="0" y="0" width="264" height="264" fill="black"/>
<rect x="4" y="4" stroke-width="8" width="48" height="48" stroke="white" fill="none"/>
<rect x="212" y="4" stroke-width="8" width="48" height="48" stroke="white" fill="none"/>
<rect x="4" y="212" stroke-width="8" width="48" height="48" stroke="white" fill="none"/>
<rect x="16" y="16" width="24" height="24" fill="white"/>
<rect x="224" y="16" width="24" height="24" fill="white"/>
<rect x="16" y="224" width="24" height="24" fill="white"/>
<rect x="72" y="0" width="8" height="8" fill="white" shape-rendering="crispEdges"/>
<rect x="88" y="0" width="8" height="8" fill="white" shape-rendering="crispEdges"/>
<rect x="136" y="0" width="8" height="8" fill="white" shape-rendering="crispEdges"/>
<rect x="144" y="0" width="8" height="8" fill="white" shape-rendering="crispEdges"/>
<rect x="152" y="0" width="8" height="8" fill="white" shape-rendering="crispEdges"/>
<rect x="176" y="0" width="8" height="8" fill="white" shape-rendering="crispEdges"/>
<rect x="192" y="0" width="8" height="8" fill="white" shape-rendering="crispEdges"/>
<rect x="72" y="8" width="8" height="8" fill="white" shape-rendering="crispEdges"/>
<rect x="120" y="8" width="8" height="8" fill="white" shape-rendering="crispEdges"/>
<rect x="160" y="8" width="8" height="8" fill="white" shape-rendering="crispEdges"/>
<rect x="168" y="8" width="8" height="8" fill="white" shape-rendering="crispEdges"/>
<rect x="176" y="8" width="8" height="8" fill="white" shape-rendering="crispEdges"/>
<rect x="192" y="8" width="8" height="8" fill="white" shape-rendering="crispEdges"/>
<rect x="64" y="16" width="8" height="8" fill="white" shape-rendering="crispEdges"/>
<rect x="80" y="16" width="8" height="8" fill="white" shape-rendering="crispEdges"/>
<rect x="88" y="16" width="8" height="8" fill="white" shape-rendering="crispEdges"/>
<rect x="120" y="16" width="8" height="8" fill="white" shape-rendering="crispEdges"/>
<rect x="136" y="16" width="8" height="8" fill="white" shape-rendering="crispEdges"/>
<rect x="144" y="16" width="8" height="8" fill="white" shape-rendering="crispEdges"/>
<rect x="152" y="16" width="8" height="8" fill="white" shape-rendering="crispEdges"/>
<rect x="168" y="16" width="8" height="8" fill="white" shape-rendering="crispEdges"/>
<rect x="184" y="16" width="8" height="8" fill="white" shape-rendering="crispEdges"/>
<rect x="192" y="16" width="8" height="8" fill="white" shape-rendering="crispEdges"/>
<rect x="64" y="24" width="8" height="8" fill="white" shape-rendering="crispEdges"/>
<rect x="72" y="24" width="8" height="8" fill="white" shape-rendering="crispEdges"/>
<rect x="104" y="24" width="8" height="8" fill="white" shape-rendering="crispEdges"/>
<rect x="112" y="24" width="8" height="8" fill="white" shape-rendering="crispEdges"/>
<rect x="136" y="24" width="8" height="8" fill="white" shape-rendering="crispEdges"/>
<rect x="152" y="24" width="8" height="8" fill="white" shape-rendering="crispEdges"/>
<rect x="168" y="24" width="8" height="8" fill="white" shape-rendering="crispEdges"/>
<rect x="184" y="24" width="8" height="8" fill="white" shape-rendering="crispEdges"/>
<rect x="192" y="24" width="8" height="8" fill="white" shape-rendering="crispEdges"/>
<rect x="88" y="32" width="8" height="8" fill="white" shape-rendering="crispEdges"/>
<rect x="112" y="32" width="8" height="8" fill="white" shape-rendering="crispEdges"/>
<rect x="120" y="32" width="8" height="8" fill="white" shape-rendering="crispEdges"/>
<rect x="128" y="32" width="8" height="8" fill="white" shape-rendering="crispEdges"/>
<rect x="136" y="32" width="8" height="8" fill="white" shape-rendering="crispEdges"/>
<rect x="160" y="32" width="8" height="8" fill="white" shape-rendering="crispEdges"/>
<rect x="168" y="32" width="8" height="8" fill="white" shape-rendering="crispEdges"/>
<rect x="184" y="32" width="8" height="8" fill="white" shape-rendering="crispEdges"/>
<rect x="80" y="40" width="8" height="8" fill="white" shape-rendering="crispEdges"/>
<rect x="104" y="40" width="8" height="8" fill="white" shape-rendering="crispEdges"/>
<rect x="112" y="40" width="8" height="8" fill="white" shape-rendering="crispEdges"/>
<rect x="128" y="40" width="8" height="8" fill="white" shape-rendering="crispEdges"/>
<rect x="192" y="40" width="8" height="8" fill="white" shape-rendering="crispEdges"/>
<rect x="64" y="48" width="8" height="8" fill="white" shape-rendering="crispEdges"/>
<rect x="80" y="48" width="8" height="8" fill="white" shape-rendering="crispEdges"/>
<rect x="96" y="48" width="8" height="8" fill="white" shape-rendering="crispEdges"/>
<rect x="112" y="48" width="8" height="8" fill="white" shape-rendering="crispEdges"/>
<rect x="128" y="48" width="8" height="8" fill="white" shape-rendering="crispEdges"/>
<rect x="144" y="48" width="8" height="8" fill="white" shape-rendering="crispEdges"/>
<rect x="160" y="48" width="8" height="8" fill="white" shape-rendering="crispEdges"/>
<rect x="176" y="48" width="8" height="8" fill="white" shape-rendering="crispEdges"/>
<rect x="192" y="48" width="8" height="8" fill="white" shape-rendering="crispEdges"/>
<rect x="72" y="56" width="8" height="8" fill="white" shape-rendering="crispEdges"/>
<rect x="96" y="56" width="8" height="8" fill="white" shape-rendering="crispEdges"/>
<rect x="112" y="56" width="8" height="8" fill="white" shape-rendering="crispEdges"/>
<rect x="120" y="56" width="8" height="8" fill="white" shape-rendering="crispEdges"/>
<rect x="128" y="56" width="8" height="8" fill="white" shape-rendering="crispEdges"/>
<rect x="136" y="56" width="8" height="8" fill="white" shape-rendering="crispEdges"/>
<rect x="184" y="56" width="8" height="8" fill="white" shape-rendering="crispEdges"/>
<rect x="24" y="64" width="8" height="8" fill="white" shape-rendering="crispEdges"/>
<rect x="32" y="64" width="8" height="8" fill="white" shape-rendering="crispEdges"/>
<rect x="48" y="64" width="8" height="8" fill="white" shape-rendering="crispEdges"/>
<rect x="56" y="64" width="8" height="8" fill="white" shape-rendering="crispEdges"/>
<rect x="72" y="64" width="8" height="8" fill="white" shape-rendering="crispEdges"/>
<rect x="80" y="64" width="8" height="8" fill="white" shape-rendering="crispEdges"/>
<rect x="112" y="64" width="8" height="8" fill="white" shape-rendering="crispEdges"/>
<rect x="120" y="64" width="8" height="8" fill="white" shape-rendering="crispEdges"/>
<rect x="136" y="64" width="8" height="8" fill="white" shape-rendering="crispEdges"/>
<rect x="152" y="64" width="8" height="8" fill="white" shape-rendering="crispEdges"/>
<rect x="168" y="64" width="8" height="8" fill="white" shape-rendering="crispEdges"/>
<rect x="184" y="64" width="8" height="8" fill="white" shape-rendering="crispEdges"/>
<rect x="232" y="64" width="8" height="8" fill="white" shape-rendering="crispEdges"/>
<rect x="240" y="64" width="8" height="8" fill="white" shape-rendering="crispEdges"/>
<rect x="8" y="72" width="8" height="8" fill="white" shape-rendering="crispEdges"/>
<rect x="40" y="72" width="8" height="8" fill="white" shape-rendering="crispEdges"/>
<rect x="64" y="72" width="8" height="8" fill="white" shape-rendering="crispEdges"/>
<rect x="72" y="72" width="8" height="8" fill="white" shape-rendering="crispEdges"/>
<rect x="80" y="72" width="8" height="8" fill="white" shape-rendering="crispEdges"/>
<rect x="88" y="72" width="8" height="8" fill="white" shape-rendering="crispEdges"/>
<rect x="112" y="72" width="8" height="8" fill="white" shape-rendering="crispEdges"/>
<rect x="128" y="72" width="8" height="8" fill="white" shape-rendering="crispEdges"/>
<rect x="144" y="72" width="8" height="8" fill="white" shape-rendering="crispEdges"/>
<rect x="152" y="72" width="8" height="8" fill="white" shape-rendering="crispEdges"/>
<rect x="200" y="72" width="8" height="8" fill="white" shape-rendering="crispEdges"/>
<rect x="216" y="72" width="8" height="8" fill="white" shape-rendering="crispEdges"/>
<rect x="224" y="72" width="8" height="8" fill="white" shape-rendering="crispEdges"/>
<rect x="240" y="72" width="8" height="8" fill="white" shape-rendering="crispEdges"/>
<rect x="248" y="72" width="8" height="8" fill="white" shape-rendering="crispEdges"/>
<rect x="8" y="80" width="8" height="8" fill="white" shape-rendering="crispEdges"/>
<rect x="48" y="80" width="8" height="8" fill="white" shape-rendering="crispEdges"/>
<rect x="88" y="80" width="8" height="8" fill="white" shape-rendering="crispEdges"/>
<rect x="96" y="80" width="8" height="8" fill="white" shape-rendering="crispEdges"/>
<rect x="120" y="80" width="8" height="8" fill="white" shape-rendering="crispEdges"/>
<rect x="144" y="80" width="8" height="8" fill="white" shape-rendering="crispEdges"/>
<rect x="152" y="80" width="8" height="8" fill="white" shape-rendering="crispEdges"/>
<rect x="160" y="80" width="8" height="8" fill="white" shape-rendering="crispEdges"/>
<rect x="168" y="80" width="8" height="8" fill="white" shape-rendering="crispEdges"/>
<rect x="184" y="80" width="8" height="8" fill="white" shape-rendering="crispEdges"/>
<rect x="200" y="80" width="8" height="8" fill="white" shape-rendering="crispEdges"/>
<rect x="216" y="80" width="8" height="8" fill="white" shape-rendering="crispEdges"/>
<rect x="240" y="80" width="8" height="8" fill="white" shape-rendering="crispEdges"/>
<rect x="256" y="80" width="8" height="8" fill="white" shape-rendering="crispEdges"/>
<rect x="16" y="88" width="8" height="8" fill="white" shape-rendering="crispEdges"/>
<rect x="32" y="88" width="8" height="8" fill="white" shape-rendering="crispEdges"/>
<rect x="40" y="88" width="8" height="8" fill="white" shape-rendering="crispEdges"/>
<rect x="72" y="88" width="8" height="8" fill="white" shape-rendering="crispEdges"/>
<rect x="80" y="88" width="8" height="8" fill="white" shape-rendering="crispEdges"/>
<rect x="120" y="88" width="8" height="8" fill="white" shape-rendering="crispEdges"/>
<rect x="128" y="88" width="8" height="8" fill="white" shape-rendering="crispEdges"/>
<rect x="144" y="88" width="8" height="8" fill="white" shape-rendering="crispEdges"/>
<rect x="152" y="88" width="8" height="8" fill="white" shape-rendering="crispEdges"/>
<rect x="192" y="88" width="8" height="8" fill="white" shape-rendering="crispEdges"/>
<rect x="208" y="88" width="8" height="8" fill="white" shape-rendering="crispEdges"/>
<rect x="216" y="88" width="8" height="8" fill="white" shape-rendering="crispEdges"/>
<rect x="224" y="88" width="8" height="8" fill="white" shape-rendering="crispEdges"/>
<rect x="240" y="88" width="8" height="8" fill="white" shape-rendering="crispEdges"/>
<rect x="248" y="88" width="8" height="8" fill="white" shape-rendering="crispEdges"/>
<rect x="256" y="88" width="8" height="8" fill="white" shape-rendering="crispEdges"/>
<rect x="32" y="96" width="8" height="8" fill="white" shape-rendering="crispEdges"/>
<rect x="40" y="96" width="8" height="8" fill="white" shape-rendering="crispEdges"/>
<rect x="48" y="96" width="8" height="8" fill="white" shape-rendering="crispEdges"/>
<rect x="56" y="96" width="8" height="8" fill="white" shape-rendering="crispEdges"/>
<rect x="80" y="96" width="8" height="8" fill="white" shape-rendering="crispEdges"/>
<rect x="112" y="96" width="8" height="8" fill="white" shape-rendering="crispEdges"/>
<rect x="136" y="96" width="8" height="8" fill="white" shape-rendering="crispEdges"/>
<rect x="144" y="96" width="8" height="8" fill="white" shape-rendering="crispEdges"/>
<rect x="160" y="96" width="8" height="8" fill="white" shape-rendering="crispEdges"/>
<rect x="168" y="96" width="8" height="8" fill="white" shape-rendering="crispEdges"/>
<rect x="176" y="96" width="8" height="8" fill="white" shape-rendering="crispEdges"/>
<rect x="192" y="96" width="8" height="8" fill="white" shape-rendering="crispEdges"/>
<rect x="208" y="96" width="8" height="8" fill="white" shape-rendering="crispEdges"/>
<rect x="216" y="96" width="8" height="8" fill="white" shape-rendering="crispEdges"/>
<rect x="224" y="96" width="8" height="8" fill="white" shape-rendering="crispEdges"/>
<rect x="232" y="96" width="8" height="8" fill="white" shape-rendering="crispEdges"/>
<rect x="240" y="96" width="8" height="8" fill="white" shape-rendering="crispEdges"/>
<rect x="8" y="104" width="8" height="8" fill="white" shape-rendering="crispEdges"/>
<rect x="32" y="104" width="8" height="8" fill="white" shape-rendering="crispEdges"/>
<rect x="40" y="104" width="8" height="8" fill="white" shape-rendering="crispEdges"/>
<rect x="64" y="104" width="8" height="8" fill="white" shape-rendering="crispEdges"/>
<rect x="112" y="104" width="8" height="8" fill="white" shape-rendering="crispEdges"/>
<rect x="120" y="104" width="8" height="8" fill="white" shape-rendering="crispEdges"/>
<rect x="136" y="104" width="8" height="8" fill="white" shape-rendering="crispEdges"/>
<rect x="144" y="104" width="8" height="8" fill="white" shape-rendering="crispEdges"/>
<rect x="160" y="104" width="8" height="8" fill="white" shape-rendering="crispEdges"/>
<rect x="168" y="104" width="8" height="8" fill="white" shape-rendering="crispEdges"/>
<rect x="176" y="104" width="8" height="8" fill="white" shape-rendering="crispEdges"/>
<rect x="184" y="104" width="8" height="8" fill="white" shape-rendering="crispEdges"/>
<rect x="192" y="104" width="8" height="8" fill="white" shape-rendering="crispEdges"/>
<rect x="248" y="104" width="8" height="8" fill="white" shape-rendering="crispEdges"/>
<rect x="0" y="112" width="8" height="8" fill="white" shape-rendering="crispEdges"/>
<rect x="8" y="112" width="8" height="8" fill="white" shape-rendering="crispEdges"/>
<rect x="16" y="112" width="8" height="8" fill="white" shape-rendering="crispEdges"/>
<rect x="48" y="112" width="8" height="8" fill="white" shape-rendering="crispEdges"/>
<rect x="56" y="112" width="8" height="8" fill="white" shape-rendering="crispEdges"/>
<rect x="88" y="112" width="8" height="8" fill="white" shape-rendering="crispEdges"/>
<rect x="96" y="112" width="8" height="8" fill="white" shape-rendering="crispEdges"/>
<rect x="128" y="112" width="8" height="8" fill="white" shape-rendering="crispEdges"/>
<rect x="144" y="112" width="8" height="8" fill="white" shape-rendering="crispEdges"/>
<rect x="160" y="112" width="8" height="8" fill="white" shape-rendering="crispEdges"/>
<rect x="208" y="112" width="8" height="8" fill="white" shape-rendering="crispEdges"/>
<rect x="32" y="120" width="8" height="8" fill="white" shape-rendering="crispEdges"/>
<rect x="64" y="120" width="8" height="8" fill="white" shape-rendering="crispEdges"/>
<rect x="96" y="120" width="8" height="8" fill="white" shape-rendering="crispEdges"/>
<rect x="104" y="120" width="8" height="8" fill="white" shape-rendering="crispEdges"/>
<rect x="112" y="120" width="8" height="8" fill="white" shape-rendering="crispEdges"/>
<rect x="120" y="120" width="8" height="8" fill="white" shape-rendering="crispEdges"/>
<rect x="128" y="120" width="8" height="8" fill="white" shape-rendering="crispEdges"/>
<rect x="136" y="120" width="8" height="8" fill="white" shape-rendering="crispEdges"/>
<rect x="184" y="120" width="8" height="8" fill="white" shape-rendering="crispEdges"/>
<rect x="200" y="120" width="8" height="8" fill="white" shape-rendering="crispEdges"/>
<rect x="224" y="120" width="8" height="8" fill="white" shape-rendering="crispEdges"/>
<rect x="232" y="120" width="8" height="8" fill="white" shape-rendering="crispEdges"/>
<rect x="240" y="120" width="8" height="8" fill="white" shape-rendering="crispEdges"/>
<rect x="248" y="120" width="8" height="8" fill="white" shape-rendering="crispEdges"/>
<rect x="256" y="120" width="8" height="8" fill="white" shape-rendering="crispEdges"/>
<rect x="0" y="128" width="8" height="8" fill="white" shape-rendering="crispEdges"/>
<rect x="8" y="128" width="8" height="8" fill="white" shape-rendering="crispEdges"/>
<rect x="16" y="128" width="8" height="8" fill="white" shape-rendering="crispEdges"/>
<rect x="24" y="128" width="8" height="8" fill="white" shape-rendering="crispEdges"/>
<rect x="48" y="128" width="8" height="8" fill="white" shape-rendering="crispEdges"/>
<rect x="64" y="128" width="8" height="8" fill="white" shape-rendering="crispEdges"/>
<rect x="72" y="128" width="8" height="8" fill="white" shape-rendering="crispEdges"/>
<rect x="80" y="128" width="8" height="8" fill="white" shape-rendering="crispEdges"/>
<rect x="104" y="128" width="8" height="8" fill="white" shape-rendering="crispEdges"/>
<rect x="120" y="128" width="8" height="8" fill="white" shape-rendering="crispEdges"/>
<rect x="128" y="128" width="8" height="8" fill="white" shape-rendering="crispEdges"/>
<rect x="144" y="128" width="8" height="8" fill="white" shape-rendering="crispEdges"/>
<rect x="152" y="128" width="8" height="8" fill="white" shape-rendering="crispEdges"/>
<rect x="200" y="128" width="8" height="8" fill="white" shape-rendering="crispEdges"/>
<rect x="208" y="128" width="8" height="8" fill="white" shape-rendering="crispEdges"/>
<rect x="216" y="128" width="8" height="8" fill="white" shape-rendering="crispEdges"/>
<rect x="232" y="128" width="8" height="8" fill="white" shape-rendering="crispEdges"/>
<rect x="240" y="128" width="8" height="8" fill="white" shape-rendering="crispEdges"/>
<rect x="248" y="128" width="8" height="8" fill="white" shape-rendering="crispEdges"/>
<rect x="8" y="136" width="8" height="8" fill="white" shape-rendering="crispEdges"/>
<rect x="16" y="136" width="8" height="8" fill="white" shape-rendering="crispEdges"/>
<rect x="56" y="136" width="8" height="8" fill="white" shape-rendering="crispEdges"/>
<rect x="88" y="136" width="8" height="8" fill="white" shape-rendering="crispEdges"/>
<rect x="96" y="136" width="8" height="8" fill="white" shape-rendering="crispEdges"/>
<rect x="112" y="136" width="8" height="8" fill="white" shape-rendering="crispEdges"/>
<rect x="144" y="136" width="8" height="8" fill="white" shape-rendering="crispEdges"/>
<rect x="160" y="136" width="8" height="8" fill="white" shape-rendering="crispEdges"/>
<rect x="168" y="136" width="8" height="8" fill="white" shape-rendering="crispEdges"/>
<rect x="176" y="136" width="8" height="8" fill="white" shape-rendering="crispEdges"/>
<rect x="192" y="136" width="8" height="8" fill="white" shape-rendering="crispEdges"/>
<rect x="216" y="136" width="8" height="8" fill="white" shape-rendering="crispEdges"/>
<rect x="224" y="136" width="8" height="8" fill="white" shape-rendering="crispEdges"/>
<rect x="232" y="136" width="8" height="8" fill="white" shape-rendering="crispEdges"/>
<rect x="24" y="144" width="8" height="8" fill="white" shape-rendering="crispEdges"/>
<rect x="32" y="144" width="8" height="8" fill="white" shape-rendering="crispEdges"/>
<rect x="40" y="144" width="8" height="8" fill="white" shape-rendering="crispEdges"/>
<rect x="48" y="144" width="8" height="8" fill="white" shape-rendering="crispEdges"/>
<rect x="64" y="144" width="8" height="8" fill="white" shape-rendering="crispEdges"/>
<rect x="72" y="144" width="8" height="8" fill="white" shape-rendering="crispEdges"/>
<rect x="88" y="144" width="8" height="8" fill="white" shape-rendering="crispEdges"/>
<rect x="120" y="144" width="8" height="8" fill="white" shape-rendering="crispEdges"/>
<rect x="144" y="144" width="8" height="8" fill="white" shape-rendering="crispEdges"/>
<rect x="160" y="144" width="8" height="8" fill="white" shape-rendering="crispEdges"/>
<rect x="168" y="144" width="8" height="8" fill="white" shape-rendering="crispEdges"/>
<rect x="176" y="144" width="8" height="8" fill="white" shape-rendering="crispEdges"/>
<rect x="184" y="144" width="8" height="8" fill="white" shape-rendering="crispEdges"/>
<rect x="216" y="144" width="8" height="8" fill="white" shape-rendering="crispEdges"/>
<rect x="224" y="144" width="8" height="8" fill="white" shape-rendering="crispEdges"/>
<rect x="232" y="144" width="8" height="8" fill="white" shape-rendering="crispEdges"/>
<rect x="240" y="144" width="8" height="8" fill="white" shape-rendering="crispEdges"/>
<rect x="256" y="144" width="8" height="8" fill="white" shape-rendering="crispEdges"/>
<rect x="8" y="152" width="8" height="8" fill="white" shape-rendering="crispEdges"/>
<rect x="16" y="152" width="8" height="8" fill="white" shape-rendering="crispEdges"/>
<rect x="24" y="152" width="8" height="8" fill="white" shape-rendering="crispEdges"/>
<rect x="40" y="152" width="8" height="8" fill="white" shape-rendering="crispEdges"/>
<rect x="88" y="152" width="8" height="8" fill="white" shape-rendering="crispEdges"/>
<rect x="96" y="152" width="8" height="8" fill="white" shape-rendering="crispEdges"/>
<rect x="120" y="152" width="8" height="8" fill="white" shape-rendering="crispEdges"/>
<rect x="152" y="152" width="8" height="8" fill="white" shape-rendering="crispEdges"/>
<rect x="176" y="152" width="8" height="8" fill="white" shape-rendering="crispEdges"/>
<rect x="184" y="152" width="8" height="8" fill="white" shape-rendering="crispEdges"/>
<rect x="192" y="152" width="8" height="8" fill="white" shape-rendering="crispEdges"/>
<rect x="200" y="152" width="8" height="8" fill="white" shape-rendering="crispEdges"/>
<rect x="232" y="152" width="8" height="8" fill="white" shape-rendering="crispEdges"/>
<rect x="240" y="152" width="8" height="8" fill="white" shape-rendering="crispEdges"/>
<rect x="248" y="152" width="8" height="8" fill="white" shape-rendering="crispEdges"/>
<rect x="16" y="160" width="8" height="8" fill="white" shape-rendering="crispEdges"/>
<rect x="24" y="160" width="8" height="8" fill="white" shape-rendering="crispEdges"/>
<rect x="48" y="160" width="8" height="8" fill="white" shape-rendering="crispEdges"/>
<rect x="72" y="160" width="8" height="8" fill="white" shape-rendering="crispEdges"/>
<rect x="80" y="160" width="8" height="8" fill="white" shape-rendering="crispEdges"/>
<rect x="96" y="160" width="8" height="8" fill="white" shape-rendering="crispEdges"/>
<rect x="112" y="160" width="8" height="8" fill="white" shape-rendering="crispEdges"/>
<rect x="120" y="160" width="8" height="8" fill="white" shape-rendering="crispEdges"/>
<rect x="128" y="160" width="8" height="8" fill="white" shape-rendering="crispEdges"/>
<rect x="152" y="160" width="8" height="8" fill="white" shape-rendering="crispEdges"/>
<rect x="160" y="160" width="8" height="8" fill="white" shape-rendering="crispEdges"/>
<rect x="176" y="160" width="8" height="8" fill="white" shape-rendering="crispEdges"/>
<rect x="208" y="160" width="8" height="8" fill="white" shape-rendering="crispEdges"/>
<rect x="216" y="160" width="8" height="8" fill="white" shape-rendering="crispEdges"/>
<rect x="232" y="160" width="8" height="8" fill="white" shape-rendering="crispEdges"/>
<rect x="248" y="160" width="8" height="8" fill="white" shape-rendering="crispEdges"/>
<rect x="0" y="168" width="8" height="8" fill="white" shape-rendering="crispEdges"/>
<rect x="8" y="168" width="8" height="8" fill="white" shape-rendering="crispEdges"/>
<rect x="16" y="168" width="8" height="8" fill="white" shape-rendering="crispEdges"/>
<rect x="24" y="168" width="8" height="8" fill="white" shape-rendering="crispEdges"/>
<rect x="32" y="168" width="8" height="8" fill="white" shape-rendering="crispEdges"/>
<rect x="40" y="168" width="8" height="8" fill="white" shape-rendering="crispEdges"/>
<rect x="56" y="168" width="8" height="8" fill="white" shape-rendering="crispEdges"/>
<rect x="64" y="168" width="8" height="8" fill="white" shape-rendering="crispEdges"/>
<rect x="72" y="168" width="8" height="8" fill="white" shape-rendering="crispEdges"/>
<rect x="80" y="168" width="8" height="8" fill="white" shape-rendering="crispEdges"/>
<rect x="120" y="168" width="8" height="8" fill="white" shape-rendering="crispEdges"/>
<rect x="136" y="168" width="8" height="8" fill="white" shape-rendering="crispEdges"/>
<rect x="152" y="168" width="8" height="8" fill="white" shape-rendering="crispEdges"/>
<rect x="168" y="168" width="8" height="8" fill="white" shape-rendering="crispEdges"/>
<rect x="176" y="168" width="8" height="8" fill="white" shape-rendering="crispEdges"/>
<rect x="192" y="168" width="8" height="8" fill="white" shape-rendering="crispEdges"/>
<rect x="208" y="168" width="8" height="8" fill="white" shape-rendering="crispEdges"/>
<rect x="224" y="168" width="8" height="8" fill="white" shape-rendering="crispEdges"/>
<rect x="240" y="168" width="8" height="8" fill="white" shape-rendering="crispEdges"/>
<rect x="248" y="168" width="8" height="8" fill="white" shape-rendering="crispEdges"/>
<rect x="256" y="168" width="8" height="8" fill="white" shape-rendering="crispEdges"/>
<rect x="0" y="176" width="8" height="8" fill="white" shape-rendering="crispEdges"/>
<rect x="32" y="176" width="8" height="8" fill="white" shape-rendering="crispEdges"/>
<rect x="40" y="176" width="8" height="8" fill="white" shape-rendering="crispEdges"/>
<rect x="48" y="176" width="8" height="8" fill="white" shape-rendering="crispEdges"/>
<rect x="88" y="176" width="8" height="8" fill="white" shape-rendering="crispEdges"/>
<rect x="96" y="176" width="8" height="8" fill="white" shape-rendering="crispEdges"/>
<rect x="120" y="176" width="8" height="8" fill="white" shape-rendering="crispEdges"/>
<rect x="144" y="176" width="8" height="8" fill="white" shape-rendering="crispEdges"/>
<rect x="152" y="176" width="8" height="8" fill="white" shape-rendering="crispEdges"/>
<rect x="160" y="176" width="8" height="8" fill="white" shape-rendering="crispEdges"/>
<rect x="184" y="176" width="8" height="8" fill="white" shape-rendering="crispEdges"/>
<rect x="208" y="176" width="8" height="8" fill="white" shape-rendering="crispEdges"/>
<rect x="224" y="176" width="8" height="8" fill="white" shape-rendering="crispEdges"/>
<rect x="232" y="176" width="8" height="8" fill="white" shape-rendering="crispEdges"/>
<rect x="248" y="176" width="8" height="8" fill="white" shape-rendering="crispEdges"/>
<rect x="256" y="176" width="8" height="8" fill="white" shape-rendering="crispEdges"/>
<rect x="0" y="184" width="8" height="8" fill="white" shape-rendering="crispEdges"/>
<rect x="56" y="184" width="8" height="8" fill="white" shape-rendering="crispEdges"/>
<rect x="64" y="184" width="8" height="8" fill="white" shape-rendering="crispEdges"/>
<rect x="80" y="184" width="8" height="8" fill="white" shape-rendering="crispEdges"/>
<rect x="120" y="184" width="8" height="8" fill="white" shape-rendering="crispEdges"/>
<rect x="152" y="184" width="8" height="8" fill="white" shape-rendering="crispEdges"/>
<rect x="176" y="184" width="8" height="8" fill="white" shape-rendering="crispEdges"/>
<rect x="184" y="184" width="8" height="8" fill="white" shape-rendering="crispEdges"/>
<rect x="192" y="184" width="8" height="8" fill="white" shape-rendering="crispEdges"/>
<rect x="216" y="184" width="8" height="8" fill="white" shape-rendering="crispEdges"/>
<rect x="240" y="184" width="8" height="8" fill="white" shape-rendering="crispEdges"/>
<rect x="248" y="184" width="8" height="8" fill="white" shape-rendering="crispEdges"/>
<rect x="256" y="184" width="8" height="8" fill="white" shape-rendering="crispEdges"/>
<rect x="0" y="192" width="8" height="8" fill="white" shape-rendering="crispEdges"/>
<rect x="8" y="192" width="8" height="8" fill="white" shape-rendering="crispEdges"/>
<rect x="24" y="192" width="8" height="8" fill="white" shape-rendering="crispEdges"/>
<rect x="32" y="192" width="8" height="8" fill="white" shape-rendering="crispEdges"/>
<rect x="48" y="192" width="8" height="8" fill="white" shape-rendering="crispEdges"/>
<rect x="80" y="192" width="8" height="8" fill="white" shape-rendering="crispEdges"/>
<rect x="152" y="192" width="8" height="8" fill="white" shape-rendering="crispEdges"/>
<rect x="176" y="192" width="8" height="8" fill="white" shape-rendering="crispEdges"/>
<rect x="184" y="192" width="8" height="8" fill="white" shape-rendering="crispEdges"/>
<rect x="192" y="192" width="8" height="8" fill="white" shape-rendering="crispEdges"/>
<rect x="200" y="192" width="8" height="8" fill="white" shape-rendering="crispEdges"/>
<rect x="208" y="192" width="8" height="8" fill="white" shape-rendering="crispEdges"/>
<rect x="216" y="192" width="8" height="8" fill="white" shape-rendering="crispEdges"/>
<rect x="224" y="192" width="8" height="8" fill="white" shape-rendering="crispEdges"/>
<rect x="232" y="192" width="8" height="8" fill="white" shape-rendering="crispEdges"/>
<rect x="64" y="200" width="8" height="8" fill="white" shape-rendering="crispEdges"/>
<rect x="72" y="200" width="8" height="8" fill="white" shape-rendering="crispEdges"/>
<rect x="80" y="200" width="8" height="8" fill="white" shape-rendering="crispEdges"/>
<rect x="96" y="200" width="8" height="8" fill="white" shape-rendering="crispEdges"/>
<rect x="112" y="200" width="8" height="8" fill="white" shape-rendering="crispEdges"/>
<rect x="120" y="200" width="8" height="8" fill="white" shape-rendering="crispEdges"/>
<rect x="136" y="200" width="8" height="8" fill="white" shape-rendering="crispEdges"/>
<rect x="152" y="200" width="8" height="8" fill="white" shape-rendering="crispEdges"/>
<rect x="168" y="200" width="8" height="8" fill="white" shape-rendering="crispEdges"/>
<rect x="176" y="200" width="8" height="8" fill="white" shape-rendering="crispEdges"/>
<rect x="192" y="200" width="8" height="8" fill="white" shape-rendering="crispEdges"/>
<rect x="224" y="200" width="8" height="8" fill="white" shape-rendering="crispEdges"/>
<rect x="240" y="200" width="8" height="8" fill="white" shape-rendering="crispEdges"/>
<rect x="248" y="200" width="8" height="8" fill="white" shape-rendering="crispEdges"/>
<rect x="64" y="208" width="8" height="8" fill="white" shape-rendering="crispEdges"/>
<rect x="80" y="208" width="8" height="8" fill="white" shape-rendering="crispEdges"/>
<rect x="96" y="208" width="8" height="8" fill="white" shape-rendering="crispEdges"/>
<rect x="104" y="208" width="8" height="8" fill="white" shape-rendering="crispEdges"/>
<rect x="112" y="208" width="8" height="8" fill="white" shape-rendering="crispEdges"/>
<rect x="136" y="208" width="8" height="8" fill="white" shape-rendering="crispEdges"/>
<rect x="160" y="208" width="8" height="8" fill="white" shape-rendering="crispEdges"/>
<rect x="192" y="208" width="8" height="8" fill="white" shape-rendering="crispEdges"/>
<rect x="208" y="208" width="8" height="8" fill="white" shape-rendering="crispEdges"/>
<rect x="224" y="208" width="8" height="8" fill="white" shape-rendering="crispEdges"/>
<rect x="80" y="216" width="8" height="8" fill="white" shape-rendering="crispEdges"/>
<rect x="88" y="216" width="8" height="8" fill="white" shape-rendering="crispEdges"/>
<rect x="96" y="216" width="8" height="8" fill="white" shape-rendering="crispEdges"/>
<rect x="112" y="216" width="8" height="8" fill="white" shape-rendering="crispEdges"/>
<rect x="120" y="216" width="8" height="8" fill="white" shape-rendering="crispEdges"/>
<rect x="128" y="216" width="8" height="8" fill="white" shape-rendering="crispEdges"/>
<rect x="136" y="216" width="8" height="8" fill="white" shape-rendering="crispEdges"/>
<rect x="144" y="216" width="8" height="8" fill="white" shape-rendering="crispEdges"/>
<rect x="168" y="216" width="8" height="8" fill="white" shape-rendering="crispEdges"/>
<rect x="176" y="216" width="8" height="8" fill="white" shape-rendering="crispEdges"/>
<rect x="184" y="216" width="8" height="8" fill="white" shape-rendering="crispEdges"/>
<rect x="192" y="216" width="8" height="8" fill="white" shape-rendering="crispEdges"/>
<rect x="224" y="216" width="8" height="8" fill="white" shape-rendering="crispEdges"/>
<rect x="240" y="216" width="8" height="8" fill="white" shape-rendering="crispEdges"/>
<rect x="248" y="216" width="8" height="8" fill="white" shape-rendering="crispEdges"/>
<rect x="64" y="224" width="8" height="8" fill="white" shape-rendering="crispEdges"/>
<rect x="88" y="224" width="8" height="8" fill="white" shape-rendering="crispEdges"/>
<rect x="96" y="224" width="8" height="8" fill="white" shape-rendering="crispEdges"/>
<rect x="112" y="224" width="8" height="8" fill="white" shape-rendering="crispEdges"/>
<rect x="128" y="224" width="8" height="8" fill="white" shape-rendering="crispEdges"/>
<rect x="144" y="224" width="8" height="8" fill="white" shape-rendering="crispEdges"/>
<rect x="168" y="224" width="8" height="8" fill="white" shape-rendering="crispEdges"/>
<rect x="176" y="224" width="8" height="8" fill="white" shape-rendering="crispEdges"/>
<rect x="184" y="224" width="8" height="8" fill="white" shape-rendering="crispEdges"/>
<rect x="192" y="224" width="8" height="8" fill="white" shape-rendering="crispEdges"/>
<rect x="200" y="224" width="8" height="8" fill="white" shape-rendering="crispEdges"/>
<rect x="208" y="224" width="8" height="8" fill="white" shape-rendering="crispEdges"/>
<rect x="216" y="224" width="8" height="8" fill="white" shape-rendering="crispEdges"/>
<rect x="224" y="224" width="8" height="8" fill="white" shape-rendering="crispEdges"/>
<rect x="248" y="224" width="8" height="8" fill="white" shape-rendering="crispEdges"/>
<rect x="64" y="232" width="8" height="8" fill="white" shape-rendering="crispEdges"/>
<rect x="72" y="232" width="8" height="8" fill="white" shape-rendering="crispEdges"/>
<rect x="96" y="232" width="8" height="8" fill="white" shape-rendering="crispEdges"/>
<rect x="104" y="232" width="8" height="8" fill="white" shape-rendering="crispEdges"/>
<rect x="112" y="232" width="8" height="8" fill="white" shape-rendering="crispEdges"/>
<rect x="120" y="232" width="8" height="8" fill="white" shape-rendering="crispEdges"/>
<rect x="128" y="232" width="8" height="8" fill="white" shape-rendering="crispEdges"/>
<rect x="144" y="232" width="8" height="8" fill="white" shape-rendering="crispEdges"/>
<rect x="152" y="232" width="8" height="8" fill="white" shape-rendering="crispEdges"/>
<rect x="168" y="232" width="8" height="8" fill="white" shape-rendering="crispEdges"/>
<rect x="176" y="232" width="8" height="8" fill="white" shape-rendering="crispEdges"/>
<rect x="184" y="232" width="8" height="8" fill="white" shape-rendering="crispEdges"/>
<rect x="192" y="232" width="8" height="8" fill="white" shape-rendering="crispEdges"/>
<rect x="200" y="232" width="8" height="8" fill="white" shape-rendering="crispEdges"/>
<rect x="216" y="232" width="8" height="8" fill="white" shape-rendering="crispEdges"/>
<rect x="240" y="232" width="8" height="8" fill="white" shape-rendering="crispEdges"/>
<rect x="248" y="232" width="8" height="8" fill="white" shape-rendering="crispEdges"/>
<rect x="72" y="240" width="8" height="8" fill="white" shape-rendering="crispEdges"/>
<rect x="88" y="240" width="8" height="8" fill="white" shape-rendering="crispEdges"/>
<rect x="112" y="240" width="8" height="8" fill="white" shape-rendering="crispEdges"/>
<rect x="120" y="240" width="8" height="8" fill="white" shape-rendering="crispEdges"/>
<rect x="128" y="240" width="8" height="8" fill="white" shape-rendering="crispEdges"/>
<rect x="136" y="240" width="8" height="8" fill="white" shape-rendering="crispEdges"/>
<rect x="144" y="240" width="8" height="8" fill="white" shape-rendering="crispEdges"/>
<rect x="160" y="240" width="8" height="8" fill="white" shape-rendering="crispEdges"/>
<rect x="176" y="240" width="8" height="8" fill="white" shape-rendering="crispEdges"/>
<rect x="184" y="240" width="8" height="8" fill="white" shape-rendering="crispEdges"/>
<rect x="224" y="240" width="8" height="8" fill="white" shape-rendering="crispEdges"/>
<rect x="232" y="240" width="8" height="8" fill="white" shape-rendering="crispEdges"/>
<rect x="248" y="240" width="8" height="8" fill="white" shape-rendering="crispEdges"/>
<rect x="256" y="240" width="8" height="8" fill="white" shape-rendering="crispEdges"/>
<rect x="96" y="248" width="8" height="8" fill="white" shape-rendering="crispEdges"/>
<rect x="104" y="248" width="8" height="8" fill="white" shape-rendering="crispEdges"/>
<rect x="112" y="248" width="8" height="8" fill="white" shape-rendering="crispEdges"/>
<rect x="152" y="248" width="8" height="8" fill="white" shape-rendering="crispEdges"/>
<rect x="168" y="248" width="8" height="8" fill="white" shape-rendering="crispEdges"/>
<rect x="208" y="248" width="8" height="8" fill="white" shape-rendering="crispEdges"/>
<rect x="232" y="248" width="8" height="8" fill="white" shape-rendering="crispEdges"/>
<rect x="240" y="248" width="8" height="8" fill="white" shape-rendering="crispEdges"/>
<rect x="248" y="248" width="8" height="8" fill="white" shape-rendering="crispEdges"/>
<rect x="256" y="248" width="8" height="8" fill="white" shape-rendering="crispEdges"/>
<rect x="72" y="256" width="8" height="8" fill="white" shape-rendering="crispEdges"/>
<rect x="80" y="256" width="8" height="8" fill="white" shape-rendering="crispEdges"/>
<rect x="96" y="256" width="8" height="8" fill="white" shape-rendering="crispEdges"/>
<rect x="104" y="256" width="8" height="8" fill="white" shape-rendering="crispEdges"/>
<rect x="144" y="256" width="8" height="8" fill="white" shape-rendering="crispEdges"/>
<rect x="152" y="256" width="8" height="8" fill="white" shape-rendering="crispEdges"/>
<rect x="160" y="256" width="8" height="8" fill="white" shape-rendering="crispEdges"/>
<rect x="168" y="256" width="8" height="8" fill="white" shape-rendering="crispEdges"/>
<rect x="184" y="256" width="8" height="8" fill="white" shape-rendering="crispEdges"/>
<rect x="192" y="256" width="8" height="8" fill="white" shape-rendering="crispEdges"/>
<rect x="200" y="256" width="8" height="8" fill="white" shape-rendering="crispEdges"/>
<rect x="224" y="256" width="8" height="8" fill="white" shape-rendering="crispEdges"/>
<rect x="240" y="256" width="8" height="8" fill="white" shape-rendering="crispEdges"/>
</g>
</mask>
<filter id="shadow357280947" x="-20" y="-20" width="75" height="75">
<feDropShadow dx="0" dy="0" stdDeviation="5" flood-color="#999999"/>
</filter>
</defs>
<rect x="0" y="0" width="360" height="360" fill="#ffdd06" mask="url(#qrCodeMask1346895962)"/>

</svg>