<svg width="16" height="16" class="h-full w-full" viewBox="0 0 40 40" fill="none"
  xmlns="http://www.w3.org/2000/svg">
  <rect width="40" height="40" rx="10" fill="black"></rect>
  <path d="M21.5189 19.9797C21.5189 23.746 18.4926 26.7994 14.7593 26.7994C11.0261 26.7994 8 23.7469 8 19.9797C8 16.2125 11.0263 13.1602 14.7593 13.1602C18.4923 13.1602 21.5189 16.2134 21.5189 19.9797ZM28.9341 19.9797C28.9341 23.5252 27.4209 26.3992 25.5544 26.3992C23.6879 26.3992 22.1746 23.5243 22.1746 19.9797C22.1746 16.4351 23.6879 13.5602 25.5544 13.5602C27.4209 13.5602 28.9341 16.4351 28.9341 19.9797ZM31.9671 19.9797C31.9671 23.1563 31.4348 25.7313 30.7784 25.7313C30.1219 25.7313 29.5897 23.1554 29.5897 19.9797C29.5897 16.804 30.1219 14.228 30.7786 14.228C31.4353 14.228 31.9671 16.8033 31.9671 19.9797Z" fill="white"></path>
</svg>